<svg xmlns="http://www.w3.org/2000/svg" viewBox="0 0 107.9 97.97">
  <g id="bg_asar" data-name="Asar Background">
    <g id="ic_asar" data-name="Asar Icon">
      <g>
        <g>
          <g>
            <circle cx="44.41" cy="42.54" r="23.86" style="fill: #fff19a"/>
            <path d="M26.7,56.21A22.37,22.37,0,1,1,66.62,39.9,22.37,22.37,0,0,1,26.7,56.21c-1.2-1.51-3.31.63-2.12,2.12A25.35,25.35,0,1,0,53.16,18.74,25.35,25.35,0,0,0,24.58,58.33a1.5,1.5,0,0,0,2.12,0A1.54,1.54,0,0,0,26.7,56.21Z" style="fill: #707070"/>
          </g>
          <g>
            <g>
              <line x1="5.59" y1="29.86" x2="15.43" y2="33.24" style="fill: #fff4bb"/>
              <path d="M5.19,31.3l8.62,3,1.23.42a1.5,1.5,0,0,0,1.84-1,1.53,1.53,0,0,0-1-1.84l-8.62-3L6,28.41a1.5,1.5,0,1,0-.8,2.89Z" style="fill: #999"/>
            </g>
            <g>
              <line x1="14.05" y1="15.08" x2="21.66" y2="22.19" style="fill: #fff4bb"/>
              <path d="M13,16.14l6.68,6.24.93.87a1.5,1.5,0,0,0,2.12-2.12L16,14.89,15.11,14A1.5,1.5,0,0,0,13,16.14Z" style="fill: #999"/>
            </g>
            <g>
              <line x1="27.81" y1="5.04" x2="31.85" y2="14.64" style="fill: #fff4bb"/>
              <path d="M26.36,5.44l3.54,8.4.5,1.2a1.55,1.55,0,0,0,1.85,1.05,1.52,1.52,0,0,0,1-1.85l-3.53-8.4-.5-1.2a1.54,1.54,0,0,0-1.85-1,1.52,1.52,0,0,0-1.05,1.84Z" style="fill: #999"/>
            </g>
            <g>
              <line x1="44.47" y1="1.5" x2="44.24" y2="11.91" style="fill: #fff4bb"/>
              <path d="M43,1.5l-.21,9.1,0,1.31a1.5,1.5,0,1,0,3,0l.2-9.1L46,1.5a1.5,1.5,0,0,0-3,0Z" style="fill: #999"/>
            </g>
            <g>
              <line x1="61.12" y1="5.07" x2="56.66" y2="14.47" style="fill: #fff4bb"/>
              <path d="M59.82,4.31l-3.9,8.23-.56,1.18a1.54,1.54,0,0,0,.54,2A1.52,1.52,0,0,0,58,15.23L61.85,7l.56-1.18a1.5,1.5,0,1,0-2.59-1.51Z" style="fill: #999"/>
            </g>
            <g>
              <line x1="74.86" y1="15.12" x2="66.95" y2="21.89" style="fill: #fff4bb"/>
              <path d="M73.8,14.06,66.89,20l-1,.86a1.5,1.5,0,0,0,0,2.12A1.55,1.55,0,0,0,68,23L74.93,17l1-.86a1.5,1.5,0,0,0,0-2.12,1.55,1.55,0,0,0-2.12,0Z" style="fill: #999"/>
            </g>
            <g>
              <line x1="83.3" y1="29.91" x2="73.32" y2="32.86" style="fill: #fff4bb"/>
              <path d="M82.91,28.47,74.19,31l-1.27.37a1.5,1.5,0,1,0,.8,2.89l8.72-2.57,1.26-.37a1.53,1.53,0,0,0,1-1.85,1.51,1.51,0,0,0-1.84-1Z" style="fill: #999"/>
            </g>
            <g>
              <line x1="3.8" y1="45.75" x2="14.19" y2="45.09" style="fill: #fff4bb"/>
              <path d="M3.8,47.25l9.08-.58,1.31-.08a1.54,1.54,0,0,0,1.5-1.5,1.52,1.52,0,0,0-1.5-1.5l-9.09.58-1.3.08a1.53,1.53,0,0,0-1.5,1.5,1.51,1.51,0,0,0,1.5,1.5Z" style="fill: #999"/>
            </g>
          </g>
        </g>
        <g>
          <path d="M1.64,70.39c0-14.08,11-25.5,24.5-25.5a23.63,23.63,0,0,1,12.91,3.83C42.77,33.3,56.17,21.89,72.14,21.89c18.84,0,34.11,15.89,34.11,35.5v12.5" style="fill: #fff"/>
          <path d="M3.14,70.39c.09-12.44,9.69-23.72,22.49-24A22.6,22.6,0,0,1,38.3,50a1.51,1.51,0,0,0,2.2-.9A34.31,34.31,0,0,1,53.63,29.39a32,32,0,0,1,22.59-5.75C92.18,25.7,104,40,104.72,55.79c.2,4.69,0,9.41,0,14.1a1.5,1.5,0,0,0,3,0c0-4.16,0-8.33,0-12.5a38.22,38.22,0,0,0-8.27-23.7A35.31,35.31,0,0,0,78.93,21.07a34.85,34.85,0,0,0-24.85,4.42A37.29,37.29,0,0,0,37.61,48.32l2.2-.89a25.38,25.38,0,0,0-22.7-2.35A26.53,26.53,0,0,0,2.74,58.64,28.54,28.54,0,0,0,.14,70.39a1.5,1.5,0,0,0,3,0Z" style="fill: #707070"/>
        </g>
        <path d="M1.45,97.89H93.54c4.23,0,8.51.19,12.73,0h.18a1.5,1.5,0,0,0,0-3H14.36c-4.23,0-8.51-.18-12.74,0a1,1,0,0,1-.17,0,1.5,1.5,0,0,0,0,3Z" style="fill: #707070"/>
      </g>
    </g>
  </g>
</svg>
