<svg xmlns="http://www.w3.org/2000/svg" viewBox="0 0 107.9 33.08">
  <g id="bg_imsak" data-name="Imsak Background">
    <g id="ic_imsak" data-name="Imsak Icon">
      <g>
        <g>
          <g>
            <path d="M75.83,31.51H33.06a28.63,28.63,0,0,1,2.24-2.45,27.51,27.51,0,0,1,38.89.6C74.77,30.26,75.32,30.87,75.83,31.51Z" style="fill: #fff19a"/>
            <path d="M75.83,30H33.06l1.06,2.56a26.58,26.58,0,0,1,15.55-9.33,26.07,26.07,0,0,1,16.8,2.5,26.84,26.84,0,0,1,8.3,6.83c1.22,1.5,3.33-.63,2.12-2.12a29,29,0,0,0-44.89,0A1.52,1.52,0,0,0,33.06,33H75.83A1.5,1.5,0,0,0,75.83,30Z" style="fill: #707070"/>
          </g>
          <g>
            <g>
              <line x1="19.64" y1="16.86" x2="28.35" y2="25.11" style="fill: #fff4bb"/>
              <path d="M18.58,17.92l7.61,7.21,1.1,1a1.5,1.5,0,0,0,2.12-2.12L21.8,16.84l-1.1-1a1.5,1.5,0,0,0-2.12,2.12Z" style="fill: #999"/>
            </g>
            <g>
              <line x1="35.58" y1="5.4" x2="40.16" y2="16.49" style="fill: #fff4bb"/>
              <path d="M34.13,5.8l4,9.71.57,1.38a1.55,1.55,0,0,0,1.84,1.05,1.51,1.51,0,0,0,1.05-1.85l-4-9.71L37,5a1.55,1.55,0,0,0-1.84-1,1.51,1.51,0,0,0-1,1.85Z" style="fill: #999"/>
            </g>
            <g>
              <line x1="54.8" y1="1.45" x2="54.45" y2="13.44" style="fill: #fff4bb"/>
              <path d="M53.3,1.45,53,11.93l0,1.51c-.05,1.93,2.95,1.93,3,0L56.26,3l0-1.51c.06-1.93-2.94-1.93-3,0Z" style="fill: #999"/>
            </g>
            <g>
              <line x1="73.97" y1="5.69" x2="68.75" y2="16.5" style="fill: #fff4bb"/>
              <path d="M72.67,4.93l-4.56,9.46-.65,1.35a1.54,1.54,0,0,0,.54,2,1.51,1.51,0,0,0,2-.53l4.56-9.45.65-1.36a1.53,1.53,0,0,0-.53-2,1.52,1.52,0,0,0-2.06.53Z" style="fill: #999"/>
            </g>
            <g>
              <line x1="89.73" y1="17.39" x2="80.56" y2="25.13" style="fill: #fff4bb"/>
              <path d="M88.67,16.33l-8,6.77-1.14,1a1.49,1.49,0,0,0,0,2.12,1.55,1.55,0,0,0,2.12,0l8-6.77,1.14-1a1.51,1.51,0,0,0,0-2.12,1.54,1.54,0,0,0-2.12,0Z" style="fill: #999"/>
            </g>
          </g>
        </g>
        <path d="M106.45,30H75.83a1.5,1.5,0,0,0,0,3h30.62a1.5,1.5,0,0,0,0-3Z" style="fill: #707070"/>
        <path d="M33.06,30H1.45a1.5,1.5,0,0,0,0,3H33.06a1.5,1.5,0,0,0,0-3Z" style="fill: #707070"/>
      </g>
    </g>
  </g>
</svg>
