<svg xmlns="http://www.w3.org/2000/svg" viewBox="0 0 107.9 49.01">
  <g id="bg_maghrib" data-name="Maghrib Background">
    <g id="ic_maghrib" data-name="Maghrib Icon">
      <g>
        <g>
          <path d="M81.91,47.51H27a27.49,27.49,0,0,1,54.93,0Z" style="fill: #fff19a"/>
          <path d="M81.91,46H27l1.5,1.5a26,26,0,0,1,51.93,0c.1,1.92,3.1,1.93,3,0a29,29,0,0,0-50-18.62,29.35,29.35,0,0,0-7.88,18.62A1.52,1.52,0,0,0,27,49H81.91A1.5,1.5,0,0,0,81.91,46Z" style="fill: #707070"/>
        </g>
        <g>
          <path d="M9.37,35.27l9.9,3.48,1.42.5a1.5,1.5,0,1,0,.8-2.89L11.6,32.88l-1.43-.5a1.51,1.51,0,0,0-1.84,1,1.53,1.53,0,0,0,1,1.85Z" style="fill: #999"/>
          <path d="M18.58,17.92l7.61,7.21,1.1,1a1.5,1.5,0,0,0,2.12-2.12L21.8,16.84l-1.1-1a1.5,1.5,0,0,0-2.12,2.12Z" style="fill: #999"/>
          <path d="M34.13,5.8l4,9.71.57,1.38a1.56,1.56,0,0,0,1.85,1.05,1.51,1.51,0,0,0,1-1.85l-4-9.71L37,5a1.56,1.56,0,0,0-1.85-1,1.51,1.51,0,0,0-1,1.85Z" style="fill: #999"/>
          <path d="M53.31,1.45,53,11.93l0,1.51c-.06,1.93,2.94,1.93,3,0L56.26,3l.05-1.51c0-1.93-3-1.93-3,0Z" style="fill: #999"/>
          <path d="M72.68,4.93l-4.56,9.46-.66,1.35a1.54,1.54,0,0,0,.54,2,1.5,1.5,0,0,0,2-.53l4.56-9.45.66-1.36a1.54,1.54,0,0,0-.54-2,1.5,1.5,0,0,0-2,.53Z" style="fill: #999"/>
          <path d="M88.67,16.33l-8,6.77-1.14,1a1.51,1.51,0,0,0,0,2.12,1.55,1.55,0,0,0,2.12,0l8-6.77,1.15-1a1.51,1.51,0,0,0,0-2.12,1.55,1.55,0,0,0-2.13,0Z" style="fill: #999"/>
          <path d="M99,33.06,88.88,36l-1.47.42a1.51,1.51,0,0,0,.8,2.9l10.07-2.9L99.74,36A1.5,1.5,0,0,0,99,33.06Z" style="fill: #999"/>
        </g>
        <path d="M106.45,46H81.91a1.5,1.5,0,0,0,0,3h24.54a1.5,1.5,0,0,0,0-3Z" style="fill: #707070"/>
        <path d="M27,46H1.45a1.5,1.5,0,0,0,0,3H27a1.5,1.5,0,0,0,0-3Z" style="fill: #707070"/>
      </g>
    </g>
  </g>
</svg>
