<svg xmlns="http://www.w3.org/2000/svg" viewBox="0 0 107.9 64">
  <g id="bg_syuruk" data-name="Syuruk Background">
    <g id="ic_syuruk" data-name="Syuruk Icon">
      <g>
        <g>
          <g>
            <path d="M78.23,62.5H30.6a27.5,27.5,0,1,1,47.63,0Z" style="fill: #fff19a"/>
            <path d="M78.23,61H30.6l1.29.75a26,26,0,1,1,45,0,1.5,1.5,0,0,0,2.59,1.51,29,29,0,1,0-50.22,0,1.51,1.51,0,0,0,1.3.74H78.23A1.5,1.5,0,0,0,78.23,61Z" style="fill: #707070"/>
          </g>
          <g>
            <path d="M9.27,35.58,19.21,39l1.4.48a1.5,1.5,0,1,0,.8-2.89l-9.94-3.42-1.41-.48a1.5,1.5,0,1,0-.79,2.89Z" style="fill: #999"/>
            <path d="M18.36,18.16l7.69,7.19,1.07,1a1.53,1.53,0,0,0,2.12,0,1.51,1.51,0,0,0,0-2.12L21.55,17l-1.07-1a1.5,1.5,0,0,0-2.12,2.12Z" style="fill: #999"/>
            <path d="M33.83,5.93l4.07,9.68L38.49,17A1.55,1.55,0,0,0,40.33,18a1.52,1.52,0,0,0,1.05-1.85L37.3,6.51l-.58-1.38a1.54,1.54,0,0,0-1.84-1,1.5,1.5,0,0,0-1.05,1.84Z" style="fill: #999"/>
            <path d="M53,1.45l-.24,10.49,0,1.51c0,1.93,3,1.93,3,0L55.94,3l0-1.51c0-1.93-3-1.93-3,0Z" style="fill: #999"/>
            <path d="M72.38,4.8l-4.5,9.48-.65,1.36a1.56,1.56,0,0,0,.54,2.06,1.52,1.52,0,0,0,2-.54l4.5-9.48L75,6.32a1.56,1.56,0,0,0-.54-2.06,1.51,1.51,0,0,0-2.05.54Z" style="fill: #999"/>
            <path d="M88.45,16.09l-8,6.81-1.15,1a1.51,1.51,0,0,0,0,2.12,1.55,1.55,0,0,0,2.12,0l8-6.82,1.15-1a1.5,1.5,0,0,0,0-2.12,1.53,1.53,0,0,0-2.12,0Z" style="fill: #999"/>
            <path d="M98.84,32.75l-10,3-1.46.43c-1.84.54-1.06,3.44.8,2.89l10.05-3,1.46-.44c1.85-.54,1.06-3.44-.8-2.89Z" style="fill: #999"/>
            <path d="M101.56,52.29,91.15,50.88l-1.48-.19a1.56,1.56,0,0,0-1.85,1,1.52,1.52,0,0,0,1.05,1.85L99.28,55l1.48.2a1.56,1.56,0,0,0,1.85-1,1.51,1.51,0,0,0-1-1.84Z" style="fill: #999"/>
            <path d="M7.6,54l10.47-.66,1.5-.1a1.53,1.53,0,0,0,1.5-1.5,1.51,1.51,0,0,0-1.5-1.5L9.1,50.86,7.6,51a1.54,1.54,0,0,0-1.5,1.5A1.5,1.5,0,0,0,7.6,54Z" style="fill: #999"/>
          </g>
        </g>
        <path d="M106.45,61H78.23a1.5,1.5,0,0,0,0,3h28.22a1.5,1.5,0,0,0,0-3Z" style="fill: #707070"/>
        <path d="M30.6,61H1.45a1.5,1.5,0,0,0,0,3H30.6a1.5,1.5,0,0,0,0-3Z" style="fill: #707070"/>
      </g>
    </g>
  </g>
</svg>
