<svg xmlns="http://www.w3.org/2000/svg" viewBox="0 0 107.9 134.09">
  <g id="bg_zohor" data-name="Zohor Background">
    <g id="ic_zohor" data-name="Zohor Icon">
      <g>
        <g>
          <g>
            <circle cx="54.41" cy="48.75" r="27.5" style="fill: #fff19a"/>
            <path d="M33.84,64.67A26,26,0,1,1,80.25,45.73,26.31,26.31,0,0,1,65.89,72.09c-11,5.49-24.47,2.11-32-7.42-1.2-1.51-3.31.63-2.12,2.12a29,29,0,1,0,32.83-45.2A29,29,0,0,0,29.13,63a30.88,30.88,0,0,0,2.59,3.82,1.5,1.5,0,0,0,2.12,0A1.54,1.54,0,0,0,33.84,64.67Z" style="fill: #707070"/>
          </g>
          <g>
            <g>
              <line x1="9.67" y1="34.13" x2="21.02" y2="38.04" style="fill: #fff4bb"/>
              <path d="M9.27,35.58,19.21,39l1.41.48a1.51,1.51,0,0,0,1.84-1,1.53,1.53,0,0,0-1.05-1.85l-9.94-3.42-1.4-.48a1.5,1.5,0,1,0-.8,2.89Z" style="fill: #999"/>
            </g>
            <g>
              <line x1="19.42" y1="17.1" x2="28.19" y2="25.3" style="fill: #fff4bb"/>
              <path d="M18.36,18.16l7.69,7.19,1.08,1a1.5,1.5,0,0,0,2.12-2.12L21.55,17l-1.07-1a1.5,1.5,0,0,0-2.12,2.12Z" style="fill: #999"/>
            </g>
            <g>
              <line x1="35.28" y1="5.53" x2="39.94" y2="16.59" style="fill: #fff4bb"/>
              <path d="M33.83,5.93l4.08,9.68L38.49,17A1.55,1.55,0,0,0,40.33,18a1.5,1.5,0,0,0,1.05-1.85L37.31,6.51l-.58-1.38a1.56,1.56,0,0,0-1.85-1,1.51,1.51,0,0,0-1.05,1.84Z" style="fill: #999"/>
            </g>
            <g>
              <line x1="54.48" y1="1.45" x2="54.21" y2="13.45" style="fill: #fff4bb"/>
              <path d="M53,1.45l-.23,10.49,0,1.51c0,1.93,3,1.93,3,0L56,3l0-1.51c0-1.93-3-1.93-3,0Z" style="fill: #999"/>
            </g>
            <g>
              <line x1="73.67" y1="5.56" x2="68.53" y2="16.4" style="fill: #fff4bb"/>
              <path d="M72.38,4.8l-4.5,9.48-.64,1.36a1.55,1.55,0,0,0,.53,2.06,1.53,1.53,0,0,0,2.06-.54l4.49-9.48L75,6.32a1.55,1.55,0,0,0-.54-2.06,1.52,1.52,0,0,0-2.05.54Z" style="fill: #999"/>
            </g>
            <g>
              <line x1="89.52" y1="17.15" x2="80.39" y2="24.95" style="fill: #fff4bb"/>
              <path d="M88.46,16.09l-8,6.81-1.16,1a1.52,1.52,0,0,0,0,2.12,1.56,1.56,0,0,0,2.13,0l8-6.82,1.15-1a1.51,1.51,0,0,0,0-2.12,1.53,1.53,0,0,0-2.12,0Z" style="fill: #999"/>
            </g>
            <g>
              <line x1="99.25" y1="34.2" x2="87.74" y2="37.59" style="fill: #fff4bb"/>
              <path d="M98.85,32.75l-10,3-1.46.43c-1.85.54-1.06,3.44.79,2.89l10.05-3,1.46-.44c1.85-.54,1.07-3.44-.79-2.89Z" style="fill: #999"/>
            </g>
            <g>
              <line x1="101.16" y1="53.73" x2="89.27" y2="52.13" style="fill: #fff4bb"/>
              <path d="M101.56,52.29,91.15,50.88l-1.48-.19a1.54,1.54,0,0,0-1.84,1,1.51,1.51,0,0,0,1,1.85L99.29,55l1.48.2a1.54,1.54,0,0,0,1.84-1,1.51,1.51,0,0,0-1-1.84Z" style="fill: #999"/>
            </g>
            <g>
              <line x1="94.94" y1="72.35" x2="84.74" y2="66.03" style="fill: #fff4bb"/>
              <path d="M95.7,71.06l-8.94-5.54-1.26-.78A1.5,1.5,0,1,0,84,67.33l8.94,5.53,1.26.79a1.54,1.54,0,0,0,2.06-.54,1.52,1.52,0,0,0-.54-2Z" style="fill: #999"/>
            </g>
            <g>
              <line x1="81.66" y1="86.8" x2="74.92" y2="76.87" style="fill: #fff4bb"/>
              <path d="M83,86.05l-5.9-8.71-.83-1.23a1.54,1.54,0,0,0-2-.54,1.51,1.51,0,0,0-.54,2.06l5.9,8.7.83,1.23a1.54,1.54,0,0,0,2.06.54,1.51,1.51,0,0,0,.53-2Z" style="fill: #999"/>
            </g>
            <g>
              <line x1="63.63" y1="94.57" x2="61.54" y2="82.76" style="fill: #fff4bb"/>
              <path d="M65.08,94.17,63.25,83.85,63,82.36a1.52,1.52,0,0,0-1.85-1,1.53,1.53,0,0,0-1,1.84l1.83,10.33L62.19,95A1.51,1.51,0,0,0,64,96a1.54,1.54,0,0,0,1-1.85Z" style="fill: #999"/>
            </g>
            <g>
              <line x1="44" y1="94.3" x2="46.92" y2="82.66" style="fill: #fff4bb"/>
              <path d="M45.45,94.7,48,84.5l.36-1.44c.47-1.87-2.43-2.67-2.9-.8L42.92,92.47l-.36,1.43c-.47,1.88,2.42,2.68,2.89.8Z" style="fill: #999"/>
            </g>
            <g>
              <line x1="26.2" y1="86.04" x2="33.61" y2="76.61" style="fill: #fff4bb"/>
              <path d="M27.26,87.11l6.49-8.27.92-1.17a1.53,1.53,0,0,0,0-2.12,1.51,1.51,0,0,0-2.12,0l-6.5,8.27L25.14,85a1.5,1.5,0,0,0,2.12,2.13Z" style="fill: #999"/>
            </g>
            <g>
              <line x1="13.31" y1="71.23" x2="23.94" y2="65.65" style="fill: #fff4bb"/>
              <path d="M14.07,72.53l9.3-4.89,1.32-.7a1.51,1.51,0,0,0,.54-2,1.54,1.54,0,0,0-2.05-.54l-9.3,4.89-1.32.7a1.5,1.5,0,1,0,1.51,2.59Z" style="fill: #999"/>
            </g>
            <g>
              <line x1="7.6" y1="52.45" x2="19.58" y2="51.69" style="fill: #fff4bb"/>
              <path d="M7.6,54l10.47-.66,1.51-.1a1.5,1.5,0,0,0,0-3l-10.47.67L7.6,51a1.54,1.54,0,0,0-1.5,1.5A1.5,1.5,0,0,0,7.6,54Z" style="fill: #999"/>
            </g>
          </g>
        </g>
        <path d="M1.45,134H93.54c4.23,0,8.51.18,12.73,0h.18a1.5,1.5,0,0,0,0-3H14.36c-4.23,0-8.51-.19-12.74,0H1.45a1.5,1.5,0,0,0,0,3Z" style="fill: #707070"/>
      </g>
    </g>
  </g>
</svg>
