<svg xmlns="http://www.w3.org/2000/svg" viewBox="0 0 52 56.15"><defs><style>.cls-1{fill:#e2e2e2;}.cls-2,.cls-3{fill:#fff;stroke:#707070;stroke-miterlimit:10;}.cls-2{stroke-width:1.3px;}.cls-3{stroke-width:1.5px;}.cls-4{fill:#707070;}</style></defs><g id="Layer_2" data-name="Layer 2"><g id="Layer_1-2" data-name="Layer 1"><circle class="cls-1" cx="26" cy="26" r="26"/><polyline class="cls-2" points="15 55.5 15 34 37 34 37 55.5"/><path class="cls-3" d="M13,30a13,13,0,0,1,26,0Z"/><rect class="cls-2" x="11" y="27" width="30" height="7"/><path class="cls-4" d="M29.2,9.56a3.29,3.29,0,0,1-.94,2.73,3.22,3.22,0,1,1-2.7-5.49.78.78,0,0,0,.75-.75.76.76,0,0,0-.75-.75A4.84,4.84,0,0,0,22,7.52a4.72,4.72,0,1,0,8.72,2A.78.78,0,0,0,30,8.81a.75.75,0,0,0-.75.75Z"/><line class="cls-3" x1="26" y1="14" x2="26" y2="16.5"/><line class="cls-2" x1="7.5" y1="55.5" x2="44.5" y2="55.5"/></g></g></svg>