<svg xmlns="http://www.w3.org/2000/svg" viewBox="0 0 55.81 59.27">
  <defs>
    <style>
      .cls-1 {
        fill: #e2e2e2;
      }

      .cls-2, .cls-3 {
        fill: #fff;
        stroke: #999;
        stroke-miterlimit: 10;
      }

      .cls-2 {
        stroke-width: 1.3px;
      }

      .cls-3 {
        stroke-width: 1.5px;
      }

      .cls-4 {
        fill: #999;
      }

      .cls-5 {
        fill: #b7b7b7;
      }
    </style>
  </defs>
  <g id="Layer_2" data-name="Layer 2">
    <g id="Layer_1-2" data-name="Layer 1">
      <g>
        <circle class="cls-1" cx="26" cy="29.12" r="26"/>
        <g>
          <polyline class="cls-2" points="15 58.62 15 37.12 37 37.12 37 58.62"/>
          <path class="cls-3" d="M13,33.12a13,13,0,0,1,26,0Z"/>
          <rect class="cls-2" x="11" y="30.12" width="30" height="7"/>
          <g>
            <path class="cls-4" d="M29.2,12.68a3.31,3.31,0,0,1-.94,2.74,3.23,3.23,0,1,1-2.7-5.5.75.75,0,0,0,0-1.5A4.84,4.84,0,0,0,22,10.64a4.72,4.72,0,1,0,8.72,2,.78.78,0,0,0-.75-.75.75.75,0,0,0-.75.75Z"/>
            <line class="cls-3" x1="26" y1="17.12" x2="26" y2="19.62"/>
          </g>
          <line class="cls-2" x1="7.5" y1="58.62" x2="44.5" y2="58.62"/>
        </g>
      </g>
      <g>
        <g>
          <path class="cls-5" d="M54.55,8.42q-.3-4-.58-8.07c0-.48-.78-.46-.74,0l.57,8.07C53.84,8.91,54.58,8.9,54.55,8.42Z"/>
          <path class="cls-5" d="M52.7,7.09c0-.67-.08-1.33-.13-2-.11-1.48-.24-3-.39-4.43,0-.48-.79-.47-.74,0,.14,1.38.26,2.76.36,4.13.05.67.1,1.33.14,2,0,.36.05.72.06,1.08s-.12.61-.53.47c-.61-.2-.74-1-.79-1.5s-.1-1.27-.15-1.9c-.12-1.38-.23-2.76-.34-4.15,0-.47-.78-.46-.74,0l.31,3.92.15,1.87A4.67,4.67,0,0,0,50.2,8a.33.33,0,0,0,0,.15c0,.17,0,.49-.19.59s-.42-.09-.52-.23a3.3,3.3,0,0,1-.34-1.46c-.16-1.15-.31-2.31-.42-3.47,0-.57-.09-1.14-.12-1.72,0-.41,0-1-.46-1.14A1.35,1.35,0,0,0,47,1a1.35,1.35,0,0,0-.57,1.07,1.11,1.11,0,0,0,1.52,1c.08,1,.18,2,.32,3,.08.6.15,1.21.25,1.82a2,2,0,0,0,.61,1.28,1.12,1.12,0,0,0,1.21.17,1,1,0,0,0,.49-.64,1.19,1.19,0,0,0,1.76-.08A2.4,2.4,0,0,0,52.7,7.09Zm-5-4.71c-.35.4-.68-.19-.49-.54.06-.1.43-.47.59-.38a2.89,2.89,0,0,1,0,.79v0A.33.33,0,0,0,47.71,2.38Z"/>
        </g>
        <g>
          <path class="cls-5" d="M51.79,17.65c-.13-1.27-.43-2.5-.65-3.75-.06-.38-.22-.66.11-.93s.59-.4.87-.59l1.74-1.18a.37.37,0,0,0-.43-.61c-.87.59-1.74,1.17-2.6,1.77s-.53,1-.38,1.85c.17,1,.38,1.93.52,2.9a4.49,4.49,0,0,1,.12,1.41c-.13.64-.65.66-1,.16a3.85,3.85,0,0,1-.27-.74.37.37,0,0,0-.63-.11.83.83,0,0,1-1.08.19.38.38,0,0,0-.46.55c.42.62-.55,2-.93,2.43a2.21,2.21,0,0,1-2.29.79c-.46-.12-.58.61-.12.74a3,3,0,0,0,3.14-1.24,4.34,4.34,0,0,0,1-2.43,1.51,1.51,0,0,0,.81-.18c.27.66.74,1.3,1.55,1.19C52,19.73,51.87,18.45,51.79,17.65Z"/>
          <path class="cls-5" d="M49.34,19.82a.37.37,0,0,0-.31.67A.37.37,0,0,0,49.34,19.82Z"/>
          <g>
            <path class="cls-5" d="M44.69,18.31c-.39-2.59-.79-5.18-1.18-7.77a.37.37,0,0,0-.74.11q.6,3.89,1.18,7.77A.37.37,0,0,0,44.69,18.31Z"/>
            <path class="cls-5" d="M44.75,19.18a.37.37,0,0,0-.28.69A.37.37,0,0,0,44.75,19.18Z"/>
          </g>
          <path class="cls-5" d="M55.81,19.19c-.13-2.61-.72-5.19-.72-7.81,0-.48-.74-.41-.74.07,0,2.62.59,5.2.72,7.82C55.09,19.74,55.84,19.67,55.81,19.19Z"/>
        </g>
      </g>
    </g>
  </g>
</svg>
